<svg version="1.1" id="Layer_1" xmlns="http://www.w3.org/2000/svg" xmlns:xlink="http://www.w3.org/1999/xlink" x="0px" y="0px"
     width="250px" height="250px" viewBox="0 0 250 250" enable-background="new 0 0 250 250" xml:space="preserve">
<path class="part blue" fill="#4AB0E3 " d="M133.206,247.672h-7.938c-67.285,0-122.031-54.743-122.031-122.029C3.237,58.355,57.983,3.61,125.268,3.61
    h7.938v77.595h-7.938c-24.5,0-44.437,19.936-44.437,44.438c0,24.498,19.937,44.426,44.437,44.426h7.938V247.672z M117.331,19.781
    c-54.846,4.068-98.218,49.993-98.218,105.862c0,55.867,43.373,101.788,98.218,105.859v-46.078
    c-29.515-3.899-52.372-29.221-52.372-59.781c0-30.562,22.857-55.892,52.372-59.792V19.781z"/>
<path class="part blue" fill="#4AB0E3 " d="M125.268,217.095c-50.428,0-91.453-41.026-91.453-91.454c0-50.436,41.025-91.46,91.453-91.46v15.875
    c-41.677,0-75.581,33.91-75.581,75.585c0,41.676,33.904,75.579,75.581,75.579V217.095z"/>
<path class="part green" fill="#56B954 " d="M125.268,217.095V201.22c41.676,0,75.579-33.902,75.579-75.579V50.056h-75.579V34.181h91.451v91.46
    C216.719,176.068,175.692,217.095,125.268,217.095"/>
<path class="part green" fill="#56B954 " d="M125.267,247.672h-7.938v-77.604h7.938c24.501,0,44.438-19.925,44.438-44.429V81.207h-52.375V3.612h129.97
    V125.64C247.299,192.926,192.553,247.672,125.267,247.672 M133.203,185.424v46.078c54.848-4.068,98.218-49.992,98.218-105.862
    V19.484h-98.218v45.847h52.373v60.309C185.576,156.203,162.722,181.526,133.203,185.424"/>
<path class="part blue" fill="#4AB0E3 " d="M133.203,247.672h-7.937c-67.284,0-122.028-54.743-122.028-122.029h15.872
    c0,55.867,43.373,101.791,98.218,105.859v-46.078c-29.515-3.899-52.372-29.221-52.372-59.781h15.875
    c0,24.498,19.937,44.426,44.435,44.426h7.937V247.672z"/>
</svg>